name C:\Users\u0101727\Documents\MyRepositories\upper-imu-dc\Results\main_tracking\Case_31\FLX01_orientations_groundFrame.mot
datacolumns 13
datarows 25
range 2.01000000 2.25000000
endheader 
time	radius_imu_[0][0]	radius_imu_[0][1]	radius_imu_[0][2]	radius_imu_[1][0]	radius_imu_[1][1]	radius_imu_[1][2]	radius_imu_[2][0]	radius_imu_[2][1]	radius_imu_[2][2]	radius_imu_x	radius_imu_y	radius_imu_z	
          2.01000000	          0.52048358	         -0.83563532	         -0.17552909	         -0.46877802	         -0.45146254	          0.75922905	         -0.71368341	         -0.31288207	         -0.62670631	         -2.26086461	         -0.17644317	          1.01373757	
          2.02000000	          0.52781608	         -0.82965856	         -0.18187045	         -0.46584226	         -0.46182080	          0.75479304	         -0.71021207	         -0.31366896	         -0.63024646	         -2.26651293	         -0.18288829	          1.00419449	
          2.03000000	          0.53541951	         -0.82357152	         -0.18723220	         -0.46429938	         -0.47219777	          0.74930325	         -0.70551544	         -0.31425978	         -0.63520764	         -2.27397169	         -0.18834376	          0.99433744	
          2.04000000	          0.54334324	         -0.81737864	         -0.19149486	         -0.46423848	         -0.48259376	          0.74268829	         -0.69947177	         -0.31463538	         -0.64167267	         -2.28335445	         -0.19268497	          0.98412963	
          2.05000000	          0.55155646	         -0.81109618	         -0.19470095	         -0.46548601	         -0.49298200	          0.73504525	         -0.69217646	         -0.31478839	         -0.64946133	         -2.29445758	         -0.19595256	          0.97361035	
          2.06000000	          0.55995773	         -0.80474966	         -0.19704141	         -0.46766324	         -0.50331685	          0.72661079	         -0.68391405	         -0.31472231	         -0.65818800	         -2.30682472	         -0.19833925	          0.96288391	
          2.07000000	          0.56840578	         -0.79836844	         -0.19880319	         -0.47029507	         -0.51354657	          0.71769942	         -0.67508326	         -0.31444834	         -0.66737158	         -2.31987454	         -0.20013658	          0.95208905	
          2.08000000	          0.57675686	         -0.79197974	         -0.20029883	         -0.47292588	         -0.52362588	          0.70863040	         -0.66610257	         -0.31398094	         -0.67655254	         -2.33304077	         -0.20166292	          0.94136311	
          2.09000000	          0.58489203	         -0.78560457	         -0.20180874	         -0.47519616	         -0.53352342	          0.69967233	         -0.65733548	         -0.31333403	         -0.68536987	         -2.34586848	         -0.20320431	          0.93081680	
          2.10000000	          0.59272390	         -0.77925702	         -0.20356049	         -0.47685509	         -0.54322174	          0.69102776	         -0.64906672	         -0.31251981	         -0.69357318	         -2.35803287	         -0.20499319	          0.92052858	
          2.11000000	          0.60018538	         -0.77294641	         -0.20574584	         -0.47772181	         -0.55271149	          0.68285568	         -0.64152894	         -0.31155072	         -0.70098271	         -2.36929284	         -0.20722579	          0.91055587	
          2.12000000	          0.60721516	         -0.76668010	         -0.20854586	         -0.47764242	         -0.56198510	          0.67530028	         -0.63493895	         -0.31044222	         -0.70744481	         -2.37943719	         -0.21008789	          0.90094888	
          2.13000000	          0.61375703	         -0.76046390	         -0.21212487	         -0.47649021	         -0.57103567	          0.66848736	         -0.62949137	         -0.30921339	         -0.71283076	         -2.38828571	         -0.21374881	          0.89175175	
          2.14000000	          0.61977926	         -0.75429911	         -0.21657914	         -0.47421906	         -0.57986257	          0.66247693	         -0.62529190	         -0.30788350	         -0.71708981	         -2.39576081	         -0.21830908	          0.88298543	
          2.15000000	          0.62530681	         -0.74817711	         -0.22186122	         -0.47093902	         -0.58848065	          0.65719629	         -0.62226026	         -0.30646621	         -0.72032675	         -2.40199141	         -0.22372285	          0.87461952	
          2.16000000	          0.63045156	         -0.74207429	         -0.22772039	         -0.46696889	         -0.59692758	          0.65239369	         -0.62005716	         -0.30496428	         -0.72285953	         -2.40738817	         -0.22973592	          0.86654607	
          2.17000000	          0.63542409	         -0.73594990	         -0.23369630	         -0.46282824	         -0.60526477	          0.64764541	         -0.61808272	         -0.30336825	         -0.72521822	         -2.41263885	         -0.23587753	          0.85857028	
          2.18000000	          0.64051279	         -0.72974936	         -0.23918451	         -0.45915273	         -0.61356909	          0.64242645	         -0.61556652	         -0.30166014	         -0.72806526	         -2.41860100	         -0.24152590	          0.85043005	
          2.19000000	          0.64602774	         -0.72341298	         -0.24356071	         -0.45654946	         -0.62191713	          0.63622455	         -0.61172767	         -0.29982120	         -0.73204952	         -2.42611379	         -0.24603544	          0.84184677	
          2.20000000	          0.65222616	         -0.71688740	         -0.24631992	         -0.45544434	         -0.63036799	          0.62865463	         -0.60594677	         -0.29783998	         -0.73764480	         -2.43579627	         -0.24888134	          0.83259164	
          2.21000000	          0.65924984	         -0.71013509	         -0.24717969	         -0.45598196	         -0.63895170	          0.61953304	         -0.59788803	         -0.29571758	         -0.74503759	         -2.44791012	         -0.24976854	          0.82254027	
          2.22000000	          0.66709837	         -0.70313867	         -0.24612149	         -0.45800828	         -0.64766655	          0.60889775	         -0.58754420	         -0.29346901	         -0.75410062	         -2.46232615	         -0.24867660	          0.81169434	
          2.23000000	          0.67564151	         -0.69589995	         -0.24337585	         -0.46112522	         -0.65648414	          0.59698585	         -0.57521481	         -0.29112168	         -0.76444496	         -2.47858203	         -0.24584484	          0.80016765	
          2.24000000	          0.68465834	         -0.68843575	         -0.23937247	         -0.46478330	         -0.66535797	          0.58418769	         -0.56144407	         -0.28871265	         -0.77551632	         -2.49599009	         -0.24171948	          0.78814917	
          2.25000000	          0.69388463	         -0.68077273	         -0.23467553	         -0.46837886	         -0.67423210	          0.57099240	         -0.54694183	         -0.28628579	         -0.78669885	         -2.51375498	         -0.23688476	          0.77586015	
